<?xml version="1.0" standalone="yes"?>
<svg xmlns="http://www.w3.org/2000/svg" width="248" height="192">
<path style="fill:#21064e; stroke:none;" d="M0 0L0 165L28 165C26.7669 158.358 27 151.732 27 145C18.9489 142.797 13.3923 137.29 6 134L6 132C12.4332 129 17.1435 122.83 21 117L11 117C12.5318 105.68 20.1563 95.3445 32 93.3295C35.9006 92.6658 40.3972 95.0639 44 93.7631C47.5437 92.4837 50.4151 88.5838 53 86C59.7621 79.2409 68.5613 72.5563 73 64C77.0719 68.2575 80.6282 72.5736 83 78C98.8954 75.9911 110.556 82.5329 114 99L88 99C87.9181 128.666 62.7613 147 35 147L35 158C39.4856 158.906 42.0274 160.872 44 165L200 165L200 103L202 103L202 165L248 165L248 82L226 82L226 79L248 79L248 0L0 0z"/>
<path style="fill:#655284; stroke:none;" d="M200.667 33.3333C200.222 33.7778 201.278 33.7222 201.333 33.6667C201.778 33.2222 200.722 33.2777 200.667 33.3333z"/>
<path style="fill:#ddd8e4; stroke:none;" d="M200 34L200 55L202 55L202 34L200 34z"/>
<path style="fill:#685687; stroke:none;" d="M167.333 47.6667C167.278 47.7222 167.222 48.7778 167.667 48.3333C167.722 48.2778 167.778 47.2222 167.333 47.6667z"/>
<path style="fill:#ffffff; stroke:none;" d="M168 47C170.976 53.3823 177.29 58.9781 183 63C180.024 56.6177 173.71 51.0219 168 47z"/>
<path style="fill:#58437a; stroke:none;" d="M169 47L170 48L169 47z"/>
<path style="fill:#3d2564; stroke:none;" d="M232.667 47.3333C232.222 47.7778 233.278 47.7222 233.333 47.6667C233.778 47.2222 232.722 47.2777 232.667 47.3333z"/>
<path style="fill:#58437a; stroke:none;" d="M170 48L171 49L170 48z"/>
<path style="fill:#e3e0e9; stroke:none;" d="M232 48L232 50C233.635 49.455 233.455 49.6351 234 48L232 48z"/>
<path style="fill:#695687; stroke:none;" d="M168 49L169 50L168 49z"/>
<path style="fill:#58437a; stroke:none;" d="M171 49L172 50L171 49z"/>
<path style="fill:#2d949d; stroke:none;" d="M188 49C189.248 49.6848 189.548 49.7488 191 50C189.752 49.3152 189.452 49.2512 188 49z"/>
<path style="fill:#6b43ba; stroke:none;" d="M211 49C212.248 49.6848 212.549 49.7488 214 50C212.752 49.3152 212.452 49.2512 211 49z"/>
<path style="fill:#59447a; stroke:none;" d="M230 49C228.814 50.1863 228.472 50.5838 228 52C229.548 50.7383 229.808 50.8061 230 49z"/>
<path style="fill:#ffffff; stroke:none;" d="M231 49C226.668 53.3323 221.613 57.3961 219 63C223.181 60.0551 231.116 54.4775 231 49z"/>
<path style="fill:#59447a; stroke:none;" d="M233 49L234 50L233 49z"/>
<path style="fill:#695787; stroke:none;" d="M169 50L170 51L169 50z"/>
<path style="fill:#58437a; stroke:none;" d="M172 50L173 51L172 50z"/>
<path style="fill:#35f0d0; stroke:none;" d="M187 50C188.218 57.309 194.309 51.2183 187 50z"/>
<path style="fill:#2fa4a6; stroke:none;" d="M191 50L192 51L191 50z"/>
<path style="fill:#734ac6; stroke:none;" d="M210 50L211 51L210 50z"/>
<path style="fill:#9b6aff; stroke:none;" d="M215 50C207.691 51.2183 213.782 57.309 215 50z"/>
<path style="fill:#59447a; stroke:none;" d="M232 50L233 51L232 50z"/>
<path style="fill:#695787; stroke:none;" d="M170 51L171 52L170 51z"/>
<path style="fill:#58437a; stroke:none;" d="M173 51L174 52L173 51z"/>
<path style="fill:#2d919b; stroke:none;" d="M186 51L186 54C186.696 52.4463 186.696 52.5537 186 51z"/>
<path style="fill:#296482; stroke:none;" d="M192 51L192 54C192.696 52.4463 192.696 52.5537 192 51z"/>
<path style="fill:#522e95; stroke:none;" d="M209 51L209 54C209.696 52.4463 209.696 52.5537 209 51z"/>
<path style="fill:#6a42b7; stroke:none;" d="M215 51L215 54C215.696 52.4463 215.696 52.5537 215 51z"/>
<path style="fill:#59447a; stroke:none;" d="M231 51L232 52L231 51z"/>
<path style="fill:#695787; stroke:none;" d="M171 52L172 53L171 52z"/>
<path style="fill:#58437a; stroke:none;" d="M174 52L175 53L174 52z"/>
<path style="fill:#59447a; stroke:none;" d="M230 52L231 53L230 52z"/>
<path style="fill:#695787; stroke:none;" d="M172 53L173 54L172 53z"/>
<path style="fill:#58437a; stroke:none;" d="M175 53L176 54L175 53z"/>
<path style="fill:#59447a; stroke:none;" d="M229 53L230 54L229 53z"/>
<path style="fill:#695787; stroke:none;" d="M173 54L174 55L173 54z"/>
<path style="fill:#58437a; stroke:none;" d="M176 54L177 55L176 54z"/>
<path style="fill:#2ea0a4; stroke:none;" d="M187 54L188 55L187 54z"/>
<path style="fill:#2c8192; stroke:none;" d="M191 54L192 55L191 54z"/>
<path style="fill:#613bab; stroke:none;" d="M210 54L211 55L210 54z"/>
<path style="fill:#7148c3; stroke:none;" d="M214 54L215 55L214 54z"/>
<path style="fill:#59447a; stroke:none;" d="M228 54L229 55L228 54z"/>
<path style="fill:#695787; stroke:none;" d="M174 55L175 56L174 55z"/>
<path style="fill:#58437a; stroke:none;" d="M177 55L178 56L177 55z"/>
<path style="fill:#296181; stroke:none;" d="M188 55C189.248 55.6848 189.548 55.7488 191 56C189.752 55.3152 189.452 55.2512 188 55z"/>
<path style="fill:#7b6b96; stroke:none;" d="M200.667 55.3333C200.222 55.7778 201.278 55.7222 201.333 55.6667C201.778 55.2222 200.722 55.2777 200.667 55.3333z"/>
<path style="fill:#502d93; stroke:none;" d="M211 55C212.248 55.6848 212.549 55.7488 214 56C212.752 55.3152 212.452 55.2512 211 55z"/>
<path style="fill:#59447a; stroke:none;" d="M224 55L225 56L224 55M227 55L228 56L227 55z"/>
<path style="fill:#695787; stroke:none;" d="M175 56L176 57L175 56z"/>
<path style="fill:#58437a; stroke:none;" d="M178 56L179 57L178 56z"/>
<path style="fill:#59447a; stroke:none;" d="M223 56L224 57L223 56M226 56L227 57L226 56z"/>
<path style="fill:#695787; stroke:none;" d="M176 57L177 58L176 57z"/>
<path style="fill:#58437a; stroke:none;" d="M179 57L180 58L179 57z"/>
<path style="fill:#59447a; stroke:none;" d="M222 57L223 58L222 57M225 57L226 58L225 57z"/>
<path style="fill:#695788; stroke:none;" d="M177 58L178 59L177 58z"/>
<path style="fill:#58437a; stroke:none;" d="M180 58L181 59L180 58z"/>
<path style="fill:#59447a; stroke:none;" d="M224 58L225 59L224 58z"/>
<path style="fill:#695788; stroke:none;" d="M178 59L179 60L178 59z"/>
<path style="fill:#58437a; stroke:none;" d="M181 59L182 60L181 59z"/>
<path style="fill:#59447a; stroke:none;" d="M223 59L224 60L223 59z"/>
<path style="fill:#695788; stroke:none;" d="M179 60L180 61L179 60z"/>
<path style="fill:#58437a; stroke:none;" d="M182 60L183 61L182 60z"/>
<path style="fill:#59447a; stroke:none;" d="M222 60L223 61L222 60z"/>
<path style="fill:#695788; stroke:none;" d="M180 61L181 62L180 61z"/>
<path style="fill:#5c487d; stroke:none;" d="M183 61L184 62L183 61z"/>
<path style="fill:#756491; stroke:none;" d="M218.333 61.6667C218.278 61.7222 218.222 62.7778 218.667 62.3333C218.722 62.2778 218.778 61.2222 218.333 61.6667z"/>
<path style="fill:#59447a; stroke:none;" d="M221 61L222 62L221 61z"/>
<path style="fill:#695788; stroke:none;" d="M181 62L182 63L181 62z"/>
<path style="fill:#9f94b3; stroke:none;" d="M183 62L184 63L183 62z"/>
<path style="fill:#59447a; stroke:none;" d="M220 62L221 63L220 62z"/>
<path style="fill:#492788; stroke:none;" d="M73 64L74 65L73 64z"/>
<path style="fill:#482686; stroke:none;" d="M72 65L73 66L72 65z"/>
<path style="fill:#9b6aff; stroke:none;" d="M73 65C64.0335 73.9665 49.645 84.0105 45 96C52.5933 100.401 57.2767 107.216 58 116L35 116C31.213 116 26.4944 115.281 23 117.028C18.506 119.275 14.3741 124.299 11.0633 128C9.63572 129.596 7.70667 131.55 8.34568 133.907C10.0208 140.084 22.5159 144.056 28 145L28 162C34.494 157.802 34 153.133 34 146C47.8174 146 59.9046 144.962 70.9992 135.674C90.516 119.337 95.7179 81.3511 73 65z"/>
<path style="fill:#6d45bd; stroke:none;" d="M74 65L75 66L74 65z"/>
<path style="fill:#6840b5; stroke:none;" d="M75 66L76 67L75 66z"/>
<path style="fill:#9b6aff; stroke:none;" d="M171.564 67.1713C169.573 68.4706 171.241 72.2614 173.436 70.8287C175.427 69.5293 173.759 65.7386 171.564 67.1713z"/>
<path style="fill:#623bac; stroke:none;" d="M174 66L175 67L174 66z"/>
<path style="fill:#815244; stroke:none;" d="M198 66C199.769 66.7789 201.036 66.9124 203 67C201.231 66.2211 199.964 66.0876 198 66z"/>
<path style="fill:#2c8293; stroke:none;" d="M227 66L228 67L227 66z"/>
<path style="fill:#35f0d0; stroke:none;" d="M228 66C227.354 68.4577 227.354 69.5422 228 72C230.547 70.6274 231.188 69.7816 232 67L228 66z"/>
<path style="fill:#2faaa9; stroke:none;" d="M230 66L231 67L230 66z"/>
<path style="fill:#5e38a7; stroke:none;" d="M76 67L77 68L76 67z"/>
<path style="fill:#5934a0; stroke:none;" d="M175 67L176 68L175 67z"/>
<path style="fill:#6a4046; stroke:none;" d="M195 67L196 68L195 67z"/>
<path style="fill:#ba7f3d; stroke:none;" d="M196 67L197 68L196 67z"/>
<path style="fill:#ffb636; stroke:none;" d="M197 67.5725C179.409 72.5984 188.746 99.2834 205.985 93.2971C222.113 87.6969 213.208 62.9418 197 67.5725z"/>
<path style="fill:#ba7f3d; stroke:none;" d="M205 67L206 68L205 67z"/>
<path style="fill:#6a4046; stroke:none;" d="M206 67L207 68L206 67z"/>
<path style="fill:#2a728a; stroke:none;" d="M226 67L227 68L226 67z"/>
<path style="fill:#4f2c90; stroke:none;" d="M77 68L78 69L77 68z"/>
<path style="fill:#8054d8; stroke:none;" d="M175.333 68.6667C175.278 68.7222 175.222 69.7778 175.667 69.3333C175.722 69.2778 175.778 68.2222 175.333 68.6667z"/>
<path style="fill:#643b47; stroke:none;" d="M193 68L194 69L193 68M208 68L209 69L208 68z"/>
<path style="fill:#31bdb4; stroke:none;" d="M226.333 68.6667C226.278 68.7223 226.222 69.7778 226.667 69.3333C226.722 69.2778 226.778 68.2222 226.333 68.6667z"/>
<path style="fill:#9c6741; stroke:none;" d="M192 69L193 70L192 69M209 69L210 70L209 69z"/>
<path style="fill:#553099; stroke:none;" d="M175 70L176 71L175 70z"/>
<path style="fill:#b57b3e; stroke:none;" d="M191 70L192 71L191 70M210 70L211 71L210 70z"/>
<path style="fill:#296985; stroke:none;" d="M226 70L227 71L226 70z"/>
<path style="fill:#2faaa9; stroke:none;" d="M231 70L232 71L231 70z"/>
<path style="fill:#6840b5; stroke:none;" d="M79 71L80 72L79 71z"/>
<path style="fill:#5a34a0; stroke:none;" d="M174 71L175 72L174 71z"/>
<path style="fill:#ae753f; stroke:none;" d="M190 71L191 72L190 71M211 71L212 72L211 71z"/>
<path style="fill:#2a738a; stroke:none;" d="M227 71L228 72L227 71z"/>
<path style="fill:#2e99a0; stroke:none;" d="M230 71L231 72L230 71z"/>
<path style="fill:#472585; stroke:none;" d="M80 72L81 73L80 72z"/>
<path style="fill:#875743; stroke:none;" d="M189 72L190 73L189 72M212 72L213 73L212 72z"/>
<path style="fill:#5f39a8; stroke:none;" d="M81 74L82 75L81 74z"/>
<path style="fill:#a8713f; stroke:none;" d="M188 74L189 75L188 74M213 74L214 75L213 74z"/>
<path style="fill:#6b43b9; stroke:none;" d="M82 76L83 77L82 76z"/>
<path style="fill:#b37a3e; stroke:none;" d="M187.333 76.6667C187.278 76.7223 187.222 77.7777 187.667 77.3333C187.722 77.2778 187.778 76.2222 187.333 76.6667M214.333 76.6667C214.278 76.7223 214.222 77.7777 214.667 77.3333C214.722 77.2778 214.778 76.2222 214.333 76.6667z"/>
<path style="fill:#8a5943; stroke:none;" d="M86.6667 77.3333C86.2222 77.7778 87.2778 77.7222 87.3333 77.6667C87.7778 77.2222 86.7222 77.2778 86.6667 77.3333z"/>
<path style="fill:#cb8d3c; stroke:none;" d="M88 77C89.7691 77.7789 91.0359 77.9124 93 78C91.231 77.2211 89.9641 77.0876 88 77z"/>
<path style="fill:#936142; stroke:none;" d="M93 77C94.2484 77.6848 94.5484 77.7488 96 78C94.7517 77.3152 94.4516 77.2512 93 77z"/>
<path style="fill:#9060b4; stroke:none;" d="M83 78L84 79L83 78z"/>
<path style="fill:#ffb636; stroke:none;" d="M84 78C85.5943 84.8913 87.9802 90.8154 88 98L113 98C111.883 89.7447 107.511 81.4724 99 78.804C94.3103 77.3336 88.855 78 84 78z"/>
<path style="fill:#a26c40; stroke:none;" d="M98 78L99 79L98 78z"/>
<path style="fill:#6f4446; stroke:none;" d="M101 79L102 80L101 79z"/>
<path style="fill:#614e81; stroke:none;" d="M154 79C160.202 81.6026 169.298 80 176 80C169.798 77.3974 160.702 79 154 79M226 79C232.202 81.6026 241.298 80 248 80C241.798 77.3974 232.702 79 226 79z"/>
<path style="fill:#cf9197; stroke:none;" d="M84 80L85 81L84 80z"/>
<path style="fill:#ffffff; stroke:none;" d="M154 80C160.202 82.6026 169.298 81 176 81C169.798 78.3974 160.702 80 154 80M226 80C232.202 82.6026 241.298 81 248 81C241.798 78.3974 232.702 80 226 80z"/>
<path style="fill:#895943; stroke:none;" d="M104 81L105 82L104 81z"/>
<path style="fill:#7a6a95; stroke:none;" d="M154 81C160.202 83.6026 169.298 82 176 82C169.798 79.3974 160.702 81 154 81M226 81C232.202 83.6026 241.298 82 248 82C241.798 79.3974 232.702 81 226 81z"/>
<path style="fill:#ad753f; stroke:none;" d="M105 82L106 83L105 82z"/>
<path style="fill:#543098; stroke:none;" d="M69 83C70.506 83.683 71.3148 83.8259 73 84C71.494 83.317 70.6852 83.1741 69 83z"/>
<path style="fill:#c489ad; stroke:none;" d="M85 83L86 84L85 83z"/>
<path style="fill:#bc813d; stroke:none;" d="M106 83L107 84L106 83z"/>
<path style="fill:#825344; stroke:none;" d="M187.333 83.6667C187.278 83.7223 187.222 84.7777 187.667 84.3333C187.722 84.2778 187.778 83.2222 187.333 83.6667M214.333 83.6667C214.278 83.7223 214.222 84.7777 214.667 84.3333C214.722 84.2778 214.778 83.2222 214.333 83.6667z"/>
<path style="fill:#21064e; stroke:none;" d="M67.3179 85.0285C61.6195 88.7814 67.6311 98.4338 73.7716 94.8164C80.5946 90.7969 73.653 80.8565 67.3179 85.0285z"/>
<path style="fill:#6f46bf; stroke:none;" d="M74 84L75 85L74 84z"/>
<path style="fill:#b97f3e; stroke:none;" d="M107 84L108 85L107 84z"/>
<path style="fill:#663eb1; stroke:none;" d="M75 85L76 86L75 85z"/>
<path style="fill:#a46e40; stroke:none;" d="M108 85L109 86L108 85z"/>
<path style="fill:#b57dcb; stroke:none;" d="M86.3333 86.6667C86.2778 86.7222 86.2222 87.7778 86.6667 87.3333C86.7222 87.2778 86.7778 86.2222 86.3333 86.6667z"/>
<path style="fill:#7a4d44; stroke:none;" d="M109 86L110 87L109 86z"/>
<path style="fill:#b37a3e; stroke:none;" d="M188 86L189 87L188 86M213 86L214 87L213 86z"/>
<path style="fill:#432280; stroke:none;" d="M64 87L64 92C64.8299 89.9695 64.8299 89.0305 64 87z"/>
<path style="fill:#ad753f; stroke:none;" d="M110 88L111 89L110 88z"/>
<path style="fill:#285e7f; stroke:none;" d="M171 88L172 89L171 88z"/>
<path style="fill:#2d929c; stroke:none;" d="M172.667 88.3333C172.222 88.7777 173.278 88.7223 173.333 88.6667C173.778 88.2222 172.722 88.2778 172.667 88.3333z"/>
<path style="fill:#956241; stroke:none;" d="M189 88L190 89L189 88M212 88L213 89L212 88z"/>
<path style="fill:#7148c2; stroke:none;" d="M228 88C229.248 88.6848 229.548 88.7488 231 89C229.752 88.3152 229.452 88.2512 228 88z"/>
<path style="fill:#d99982; stroke:none;" d="M87.3333 89.6667C87.2778 89.7222 87.2222 90.7778 87.6667 90.3333C87.7222 90.2778 87.7778 89.2222 87.3333 89.6667z"/>
<path style="fill:#2c8394; stroke:none;" d="M170 89L171 90L170 89z"/>
<path style="fill:#35f0d0; stroke:none;" d="M175 94L175 89C170.008 89.832 170.008 93.168 175 94z"/>
<path style="fill:#be833d; stroke:none;" d="M190 89L191 90L190 89M211 89L212 90L211 89z"/>
<path style="fill:#9b6aff; stroke:none;" d="M227 89L227 94C231.992 93.168 231.992 89.832 227 89z"/>
<path style="fill:#623cad; stroke:none;" d="M231 89L232 90L231 89z"/>
<path style="fill:#a8713f; stroke:none;" d="M111 90L112 91L111 90z"/>
<path style="fill:#32c8ba; stroke:none;" d="M175 90L175 93C175.696 91.4463 175.696 91.5537 175 90z"/>
<path style="fill:#8659e1; stroke:none;" d="M226 90L226 93C226.696 91.4463 226.696 91.5537 226 90z"/>
<path style="fill:#bb82c0; stroke:none;" d="M87.3333 91.6667C87.2778 91.7222 87.2222 92.7778 87.6667 92.3333C87.7222 92.2778 87.7778 91.2222 87.3333 91.6667z"/>
<path style="fill:#b0773f; stroke:none;" d="M192 91L193 92L192 91M209 91L210 92L209 91z"/>
<path style="fill:#744ac7; stroke:none;" d="M46 92L47 93L46 92z"/>
<path style="fill:#5b35a2; stroke:none;" d="M76 92L77 93L76 92z"/>
<path style="fill:#6b4146; stroke:none;" d="M112 92L113 93L112 92z"/>
<path style="fill:#7a4c44; stroke:none;" d="M193 92L194 93L193 92M208 92L209 93L208 92z"/>
<path style="fill:#5c34ab; stroke:none;" d="M30 93C33.1633 94.3274 36.5856 93.9996 40 94C36.8367 92.6726 33.4144 93.0004 30 93z"/>
<path style="fill:#7349c5; stroke:none;" d="M45 93L46 94L45 93z"/>
<path style="fill:#532f97; stroke:none;" d="M65 93L66 94L65 93z"/>
<path style="fill:#d3933b; stroke:none;" d="M112.333 93.6667C112.278 93.7222 112.222 94.7778 112.667 94.3333C112.722 94.2778 112.778 93.2222 112.333 93.6667z"/>
<path style="fill:#274e76; stroke:none;" d="M170 93L171 94L170 93z"/>
<path style="fill:#825343; stroke:none;" d="M195 93L196 94L195 93M206 93L207 94L206 93z"/>
<path style="fill:#472585; stroke:none;" d="M231 93L232 94L231 93z"/>
<path style="fill:#512b99; stroke:none;" d="M27 94L28 95L27 94z"/>
<path style="fill:#8050e3; stroke:none;" d="M12 116L58 116C57.5405 105.486 51.5472 101.177 45 94C39.6906 94.845 34.3357 93.391 29 94.3287C18.2564 96.2167 12.4453 105.787 12 116z"/>
<path style="fill:#683dbe; stroke:none;" d="M40.6667 94.3333C40.2222 94.7778 41.2778 94.7222 41.3333 94.6667C41.7778 94.2222 40.7222 94.2778 40.6667 94.3333z"/>
<path style="fill:#492788; stroke:none;" d="M66 94L67 95L66 94z"/>
<path style="fill:#26426f; stroke:none;" d="M172.667 94.3333C172.222 94.7777 173.278 94.7223 173.333 94.6667C173.778 94.2222 172.722 94.2778 172.667 94.3333z"/>
<path style="fill:#9b6741; stroke:none;" d="M198 94C199.769 94.7789 201.036 94.9124 203 95C201.231 94.2211 199.964 94.0876 198 94z"/>
<path style="fill:#462584; stroke:none;" d="M228.667 94.3333C228.222 94.7777 229.278 94.7223 229.333 94.6667C229.778 94.2222 228.722 94.2778 228.667 94.3333z"/>
<path style="fill:#653eb1; stroke:none;" d="M67 95L68 96L67 95z"/>
<path style="fill:#512e94; stroke:none;" d="M73 95L74 96L73 95z"/>
<path style="fill:#7a4fd0; stroke:none;" d="M69 96C70.2484 96.6848 70.5484 96.7488 72 97C70.7517 96.3152 70.4516 96.2512 69 96z"/>
<path style="fill:#44224a; stroke:none;" d="M113 96L113 99C113.696 97.4463 113.696 97.5537 113 96z"/>
<path style="fill:#a36d40; stroke:none;" d="M88 98C91.6975 99.5515 96.0168 99 100 99C96.3025 97.4485 91.9832 98 88 98z"/>
<path style="fill:#8d5c42; stroke:none;" d="M100 98C103.959 99.6611 108.737 99 113 99C109.041 97.3389 104.263 98 100 98z"/>
<path style="fill:#574379; stroke:none;" d="M181 98C176.502 102.498 171.669 106.792 168 112C172.537 108.804 179.66 103.529 181 98z"/>
<path style="fill:#ffffff; stroke:none;" d="M182 98C177.084 102.916 170.966 107.641 168 114C172.537 110.804 182.125 103.913 182 98z"/>
<path style="fill:#6b5989; stroke:none;" d="M183.333 98.6667C183.278 98.7222 183.222 99.7778 183.667 99.3333C183.722 99.2778 183.778 98.2222 183.333 98.6667z"/>
<path style="fill:#59447a; stroke:none;" d="M218.333 98.6667C218.278 98.7223 218.222 99.7778 218.667 99.3333C218.722 99.2778 218.778 98.2222 218.333 98.6667z"/>
<path style="fill:#ffffff; stroke:none;" d="M219 98C221.976 104.382 228.29 109.978 234 114C231.024 107.618 224.71 102.022 219 98z"/>
<path style="fill:#59447a; stroke:none;" d="M220 98L221 99L220 98M221 99L222 100L221 99z"/>
<path style="fill:#695788; stroke:none;" d="M182 100L183 101L182 100z"/>
<path style="fill:#756491; stroke:none;" d="M219 100L220 101L219 100z"/>
<path style="fill:#59447a; stroke:none;" d="M222 100L223 101L222 100z"/>
<path style="fill:#695788; stroke:none;" d="M181 101L182 102L181 101z"/>
<path style="fill:#756491; stroke:none;" d="M220 101L221 102L220 101z"/>
<path style="fill:#59447a; stroke:none;" d="M223 101L224 102L223 101z"/>
<path style="fill:#695788; stroke:none;" d="M180 102L181 103L180 102z"/>
<path style="fill:#756491; stroke:none;" d="M221 102L222 103L221 102z"/>
<path style="fill:#59447a; stroke:none;" d="M224 102L225 103L224 102z"/>
<path style="fill:#512b99; stroke:none;" d="M15 103L16 104L15 103z"/>
<path style="fill:#7f53d6; stroke:none;" d="M87 103L87 106C87.6961 104.446 87.6961 104.554 87 103z"/>
<path style="fill:#695788; stroke:none;" d="M179 103L180 104L179 103z"/>
<path style="fill:#6a5888; stroke:none;" d="M200.667 103.333C200.222 103.778 201.278 103.722 201.333 103.667C201.778 103.222 200.722 103.278 200.667 103.333z"/>
<path style="fill:#756491; stroke:none;" d="M222 103L223 104L222 103z"/>
<path style="fill:#59447a; stroke:none;" d="M225 103L226 104L225 103z"/>
<path style="fill:#695788; stroke:none;" d="M178 104L179 105L178 104z"/>
<path style="fill:#ffffff; stroke:none;" d="M200 104L200 165L202 165L202 104L200 104z"/>
<path style="fill:#756491; stroke:none;" d="M223 104L224 105L223 104z"/>
<path style="fill:#59447a; stroke:none;" d="M226 104L227 105L226 104z"/>
<path style="fill:#695788; stroke:none;" d="M177 105L178 106L177 105z"/>
<path style="fill:#57329c; stroke:none;" d="M187 105L188 106L187 105z"/>
<path style="fill:#9b6aff; stroke:none;" d="M188.564 106.171C186.573 107.471 188.241 111.261 190.436 109.829C192.427 108.529 190.759 104.739 188.564 106.171z"/>
<path style="fill:#482686; stroke:none;" d="M191 105L192 106L191 105z"/>
<path style="fill:#275077; stroke:none;" d="M210 105L211 106L210 105z"/>
<path style="fill:#35f0d0; stroke:none;" d="M211.564 106.171C209.573 107.471 211.241 111.261 213.436 109.829C215.427 108.529 213.759 104.739 211.564 106.171z"/>
<path style="fill:#2a6d87; stroke:none;" d="M214 105L215 106L214 105z"/>
<path style="fill:#756491; stroke:none;" d="M224 105L225 106L224 105z"/>
<path style="fill:#59447a; stroke:none;" d="M227 105L228 106L227 105z"/>
<path style="fill:#492788; stroke:none;" d="M87.3333 106.667C87.2778 106.722 87.2222 107.778 87.6667 107.333C87.7222 107.278 87.7778 106.222 87.3333 106.667z"/>
<path style="fill:#695788; stroke:none;" d="M176 106L177 107L176 106z"/>
<path style="fill:#274772; stroke:none;" d="M215 106L216 107L215 106z"/>
<path style="fill:#756491; stroke:none;" d="M225 106L226 107L225 106z"/>
<path style="fill:#59447a; stroke:none;" d="M228 106L229 107L228 106z"/>
<path style="fill:#695788; stroke:none;" d="M175 107L176 108L175 107z"/>
<path style="fill:#623cad; stroke:none;" d="M186.333 107.667C186.278 107.722 186.222 108.778 186.667 108.333C186.722 108.278 186.778 107.222 186.333 107.667z"/>
<path style="fill:#4b288b; stroke:none;" d="M192.333 107.667C192.278 107.722 192.222 108.778 192.667 108.333C192.722 108.278 192.778 107.222 192.333 107.667z"/>
<path style="fill:#28567b; stroke:none;" d="M209.333 107.667C209.278 107.722 209.222 108.778 209.667 108.333C209.722 108.278 209.778 107.222 209.333 107.667z"/>
<path style="fill:#2c8394; stroke:none;" d="M215.333 107.667C215.278 107.722 215.222 108.778 215.667 108.333C215.722 108.278 215.778 107.222 215.333 107.667z"/>
<path style="fill:#756491; stroke:none;" d="M226 107L227 108L226 107z"/>
<path style="fill:#59447a; stroke:none;" d="M229 107L230 108L229 107z"/>
<path style="fill:#695788; stroke:none;" d="M174 108L175 109L174 108z"/>
<path style="fill:#756491; stroke:none;" d="M227 108L228 109L227 108z"/>
<path style="fill:#59447a; stroke:none;" d="M230 108L231 109L230 108z"/>
<path style="fill:#5c34ab; stroke:none;" d="M12.3333 109.667C12.2778 109.722 12.2222 110.778 12.6667 110.333C12.7222 110.278 12.7778 109.222 12.3333 109.667z"/>
<path style="fill:#695788; stroke:none;" d="M173 109L174 110L173 109z"/>
<path style="fill:#756491; stroke:none;" d="M228 109L229 110L228 109z"/>
<path style="fill:#59447a; stroke:none;" d="M231 109L232 110L231 109z"/>
<path style="fill:#542f97; stroke:none;" d="M86.3333 110.667C86.2778 110.722 86.2222 111.778 86.6667 111.333C86.7222 111.278 86.7778 110.222 86.3333 110.667z"/>
<path style="fill:#695788; stroke:none;" d="M172 110L173 111L172 110z"/>
<path style="fill:#264672; stroke:none;" d="M214 110L215 111L214 110z"/>
<path style="fill:#756491; stroke:none;" d="M229 110L230 111L229 110z"/>
<path style="fill:#59447a; stroke:none;" d="M232 110L233 111L232 110z"/>
<path style="fill:#695788; stroke:none;" d="M171 111L172 112L171 111z"/>
<path style="fill:#756491; stroke:none;" d="M230 111L231 112L230 111z"/>
<path style="fill:#59447a; stroke:none;" d="M233 111L234 112L233 111z"/>
<path style="fill:#5a467c; stroke:none;" d="M167 112L168 113L167 112z"/>
<path style="fill:#695788; stroke:none;" d="M170 112L171 113L170 112z"/>
<path style="fill:#756491; stroke:none;" d="M231 112L232 113L231 112z"/>
<path style="fill:#59447a; stroke:none;" d="M234.333 112.667C234.278 112.722 234.222 113.778 234.667 113.333C234.722 113.278 234.778 112.222 234.333 112.667z"/>
<path style="fill:#391973; stroke:none;" d="M11 113L11 117C11.7102 115.241 11.7102 114.759 11 113z"/>
<path style="fill:#85769e; stroke:none;" d="M167 113L168 114L167 113z"/>
<path style="fill:#695788; stroke:none;" d="M169 113L170 114L169 113z"/>
<path style="fill:#756491; stroke:none;" d="M232 113L233 114L232 113z"/>
<path style="fill:#5c36a4; stroke:none;" d="M85 114L86 115L85 114z"/>
<path style="fill:#512b99; stroke:none;" d="M12 116C15.3841 117.423 19.3723 117.399 23 117C19.5676 115.56 15.7002 116 12 116z"/>
<path style="fill:#4c298c; stroke:none;" d="M84 117L85 118L84 117M20 118L21 119L20 118z"/>
<path style="fill:#4a288a; stroke:none;" d="M19 119L20 120L19 119z"/>
<path style="fill:#57339d; stroke:none;" d="M83 119L84 120L83 119z"/>
<path style="fill:#492687; stroke:none;" d="M18 120L19 121L18 120z"/>
<path style="fill:#472585; stroke:none;" d="M17 121L18 122L17 121z"/>
<path style="fill:#57329c; stroke:none;" d="M82 121L83 122L82 121z"/>
<path style="fill:#492788; stroke:none;" d="M81 123L82 124L81 123z"/>
<path style="fill:#7148c2; stroke:none;" d="M80 124L81 125L80 124z"/>
<path style="fill:#4f2c91; stroke:none;" d="M79 126L80 127L79 126z"/>
<path style="fill:#6a42b8; stroke:none;" d="M78 127L79 128L78 127z"/>
<path style="fill:#4b288a; stroke:none;" d="M75 131L76 132L75 131z"/>
<path style="fill:#492788; stroke:none;" d="M6.33333 132.667C6.27778 132.722 6.22222 133.778 6.66667 133.333C6.72222 133.278 6.77779 132.222 6.33333 132.667z"/>
<path style="fill:#4f2c91; stroke:none;" d="M74 132L75 133L74 132z"/>
<path style="fill:#4f2b90; stroke:none;" d="M73 133L74 134L73 133z"/>
<path style="fill:#492788; stroke:none;" d="M72 134L73 135L72 134z"/>
<path style="fill:#6039a9; stroke:none;" d="M11 137L12 138L11 137z"/>
<path style="fill:#653eb0; stroke:none;" d="M68 137L69 138L68 137z"/>
<path style="fill:#492688; stroke:none;" d="M67 138L68 139L67 138z"/>
<path style="fill:#653eb0; stroke:none;" d="M14 139L15 140L14 139z"/>
<path style="fill:#6941b7; stroke:none;" d="M65 139L66 140L65 139z"/>
<path style="fill:#482687; stroke:none;" d="M17 141L18 142L17 141z"/>
<path style="fill:#4c298c; stroke:none;" d="M62 141L63 142L62 141z"/>
<path style="fill:#482686; stroke:none;" d="M19 142L20 143L19 142z"/>
<path style="fill:#4b288b; stroke:none;" d="M60 142L61 143L60 142z"/>
<path style="fill:#6840b5; stroke:none;" d="M22 143L23 144L22 143z"/>
<path style="fill:#6b43ba; stroke:none;" d="M57 143L58 144L57 143z"/>
<path style="fill:#492687; stroke:none;" d="M24 144L25 145L24 144z"/>
<path style="fill:#7249c4; stroke:none;" d="M54 144L55 145L54 144z"/>
<path style="fill:#4c298d; stroke:none;" d="M55 144L56 145L55 144z"/>
<path style="fill:#673fb3; stroke:none;" d="M27 145L27 163C28.9516 158.349 28.9516 149.651 27 145z"/>
<path style="fill:#603aa9; stroke:none;" d="M50 145C51.2483 145.685 51.5484 145.749 53 146C51.7516 145.315 51.4516 145.251 50 145z"/>
<path style="fill:#8e60ec; stroke:none;" d="M34 146C37.4324 147.44 41.2998 147 45 147C41.5676 145.56 37.7002 146 34 146z"/>
<path style="fill:#5934a0; stroke:none;" d="M45 146C46.2484 146.685 46.5484 146.749 48 147C46.7516 146.315 46.4516 146.251 45 146z"/>
<path style="fill:#442380; stroke:none;" d="M34 147L34 158C35.4309 154.59 35.4309 150.41 34 147z"/>
<path style="fill:#ca8ea0; stroke:none;" d="M33 158L34 159L33 158z"/>
<path style="fill:#ffb636; stroke:none;" d="M28 166L44 166C41.685 156.492 30.0357 156.148 28 166z"/>
<path style="fill:#8a5943; stroke:none;" d="M38 158L39 159L38 158z"/>
<path style="fill:#d4958c; stroke:none;" d="M31 159L32 160L31 159z"/>
<path style="fill:#a06b40; stroke:none;" d="M40 159L41 160L40 159z"/>
<path style="fill:#c6893c; stroke:none;" d="M42 161L43 162L42 161z"/>
<path style="fill:#a5708f; stroke:none;" d="M28 162L29 163L28 162z"/>
<path style="fill:#724645; stroke:none;" d="M43 162L44 163L43 162z"/>
<path style="fill:#2e0f66; stroke:none;" d="M0 165L0 192L34 192C32.494 191.317 31.6852 191.174 30 191L32 190C30.494 189.317 29.6852 189.174 28 189L32 188C31.3502 186.7 31.8532 187 30 187C32.1059 186.356 33.7951 186.094 36 186C32.8367 184.673 29.4144 185 26 185C28.729 184.19 31.1505 184.021 34 184C32.494 183.317 31.6852 183.174 30 183L32 182C30.494 181.317 29.6852 181.174 28 181L32 180C31.3502 178.7 31.8532 179 30 179C32.1059 178.356 33.7951 178.094 36 178C32.8367 176.673 29.4144 177 26 177C28.729 176.19 31.1505 176.021 34 176C32.494 175.317 31.6852 175.174 30 175L32 174C30.494 173.317 29.6852 173.174 28 173L32 172C31.3502 170.7 31.8532 171 30 171C32.1059 170.356 33.7951 170.094 36 170C32.8367 168.673 29.4144 169 26 169C28.729 168.19 31.1505 168.021 34 168C23.5253 163.423 11.199 165 0 165z"/>
<path style="fill:#99644f; stroke:none;" d="M27 165C29.9705 168.399 42.0295 168.399 45 165C39.0966 166.405 32.9034 166.405 27 165z"/>
<path style="fill:#2f1069; stroke:none;" d="M26 168C29.1633 169.327 32.5856 169 36 169C33.8941 169.644 32.2049 169.906 30 170C30.6498 171.3 30.1468 171 32 171L28 172C29.506 172.683 30.3148 172.826 32 173L30 174C31.5061 174.683 32.3148 174.826 34 175C31.271 175.81 28.8495 175.979 26 176C29.1633 177.327 32.5856 177 36 177C33.8941 177.644 32.2049 177.906 30 178C30.6498 179.3 30.1468 179 32 179L28 180C29.506 180.683 30.3148 180.826 32 181L30 182C31.5061 182.683 32.3148 182.826 34 183C31.271 183.81 28.8495 183.979 26 184C29.1633 185.327 32.5856 185 36 185C33.8941 185.644 32.2049 185.906 30 186C30.6498 187.3 30.1468 187 32 187L28 188C29.506 188.683 30.3148 188.826 32 189L30 190C38.1408 194.328 50.981 192 60 192C58.7624 190.35 57.3335 190.667 60 190C57.3873 188.902 54.8355 189.007 52 189C54.729 188.19 57.1505 188.021 60 188C58.494 187.317 57.6852 187.174 56 187C58.1059 186.356 59.7951 186.094 62 186C59.3873 184.902 56.8355 185.007 54 185C56.1059 184.356 57.7951 184.094 60 184C58.7624 182.35 57.3335 182.667 60 182C57.3873 180.902 54.8355 181.007 52 181C54.729 180.19 57.1505 180.021 60 180C58.494 179.317 57.6852 179.174 56 179C58.1059 178.356 59.7951 178.094 62 178C59.3873 176.902 56.8355 177.007 54 177C56.1059 176.356 57.7951 176.094 60 176C58.7624 174.35 57.3335 174.667 60 174C57.3873 172.902 54.8355 173.007 52 173C54.729 172.19 57.1505 172.021 60 172C58.494 171.317 57.6852 171.174 56 171C58.1059 170.356 59.7951 170.094 62 170C59.3873 168.902 56.8355 169.007 54 169C56.1059 168.356 57.7951 168.094 60 168C59.3502 166.7 59.8532 167 58 167C63.4364 165.393 69.3598 166 75 166L104 166L200 166C195.28 164.019 189.08 165 184 165L150 165C116.749 165 83.2401 163.779 50.0147 165.019C42.0351 165.316 34.1848 167.932 26 168z"/>
<path style="fill:#afa0cd; stroke:none;" d="M200.667 165.333C200.222 165.778 201.278 165.722 201.333 165.667C201.778 165.222 200.722 165.278 200.667 165.333z"/>
<path style="fill:#2e0f67; stroke:none;" d="M202 165C206.469 166.875 212.191 166 217 166L248 166C243.531 164.125 237.809 165 233 165L202 165z"/>
<path style="fill:#32126e; stroke:none;" d="M58 166C58.6498 167.3 58.1468 167 60 167C57.8941 167.644 56.2049 167.906 54 168C56.6127 169.098 59.1645 168.993 62 169C59.8941 169.644 58.2049 169.906 56 170C57.506 170.683 58.3148 170.826 60 171C57.271 171.81 54.8495 171.979 52 172C54.6127 173.098 57.1645 172.993 60 173C57.9264 174.659 57.1634 174.433 60 175C57.8941 175.644 56.2049 175.906 54 176C56.6127 177.098 59.1645 176.993 62 177C59.8941 177.644 58.2049 177.906 56 178C57.506 178.683 58.3148 178.826 60 179C57.271 179.81 54.8495 179.979 52 180C54.6127 181.098 57.1645 180.993 60 181C57.9264 182.659 57.1634 182.433 60 183C57.8941 183.644 56.2049 183.906 54 184C56.6127 185.098 59.1645 184.993 62 185C59.8941 185.644 58.2049 185.906 56 186C57.5061 186.683 58.3148 186.826 60 187C57.271 187.81 54.8495 187.979 52 188C54.6127 189.098 57.1645 188.993 60 189C58.4661 190.023 58.5977 189.805 58 191C67.5235 193.267 78.2471 192 88 192C86.0999 189.987 84.7393 189.389 82 189C84.1059 188.356 85.7951 188.094 88 188C86.7624 186.35 85.3335 186.667 88 186C85.9479 185.126 84.2528 185.047 82 185C84.1059 184.356 85.7951 184.094 88 184C86.0999 181.987 84.7393 181.389 82 181C84.1059 180.356 85.7951 180.094 88 180C86.7624 178.35 85.3335 178.667 88 178C85.9479 177.126 84.2528 177.047 82 177C84.1059 176.356 85.7951 176.094 88 176C86.0999 173.987 84.7394 173.389 82 173C84.1059 172.356 85.7951 172.094 88 172C86.7624 170.35 85.3335 170.667 88 170C85.9479 169.126 84.2528 169.047 82 169C84.1059 168.356 85.7951 168.094 88 168C80.9659 163.194 66.344 166 58 166z"/>
<path style="fill:#351474; stroke:none;" d="M86 166C86.6498 167.3 86.1468 167 88 167C85.8941 167.644 84.2049 167.906 82 168C84.0521 168.874 85.7472 168.953 88 169C85.9264 170.659 85.1634 170.433 88 171C85.8941 171.644 84.2049 171.906 82 172C83.923 173.221 85.8812 174.157 88 175C85.8941 175.644 84.2049 175.906 82 176C84.0521 176.874 85.7472 176.953 88 177C85.9264 178.659 85.1634 178.433 88 179C85.8941 179.644 84.2049 179.906 82 180C83.9229 181.221 85.8812 182.157 88 183C85.8941 183.644 84.2049 183.906 82 184C84.0521 184.874 85.7472 184.953 88 185C85.9264 186.659 85.1634 186.433 88 187C85.8941 187.644 84.2049 187.906 82 188C92.9851 195.07 109.367 192 122 192C120.762 190.35 119.334 190.667 122 190C119.387 188.902 116.835 189.007 114 189C116.729 188.19 119.15 188.021 122 188C120.762 186.35 119.334 186.667 122 186C118.837 184.673 115.414 185 112 185C115.35 184.01 118.514 184.002 122 184C120.762 182.35 119.334 182.667 122 182C119.387 180.902 116.835 181.007 114 181C116.729 180.19 119.15 180.021 122 180C120.762 178.35 119.334 178.667 122 178C118.837 176.673 115.414 177 112 177C115.35 176.01 118.514 176.002 122 176C120.762 174.35 119.334 174.667 122 174C119.387 172.902 116.835 173.007 114 173C116.729 172.19 119.15 172.021 122 172C120.762 170.35 119.334 170.667 122 170C118.837 168.673 115.414 169 112 169C115.35 168.01 118.514 168.002 122 168C118.394 165.537 114.251 166 110 166L86 166z"/>
<path style="fill:#381679; stroke:none;" d="M120 166C120.65 167.3 120.147 167 122 167C118.65 167.99 115.486 167.998 112 168C115.163 169.327 118.586 169 122 169C119.926 170.659 119.163 170.433 122 171C119.271 171.81 116.85 171.979 114 172C116.613 173.098 119.165 172.993 122 173C119.926 174.659 119.163 174.433 122 175C118.65 175.99 115.486 175.998 112 176C115.163 177.327 118.586 177 122 177C119.926 178.659 119.163 178.433 122 179C119.271 179.81 116.85 179.979 114 180C116.613 181.098 119.165 180.993 122 181C119.926 182.659 119.163 182.433 122 183C118.65 183.99 115.486 183.998 112 184C115.163 185.327 118.586 185 122 185C119.926 186.659 119.163 186.433 122 187C119.271 187.81 116.85 187.979 114 188C116.613 189.098 119.165 188.993 122 189C120.466 190.023 120.598 189.805 120 191C126.513 192.551 133.342 192 140 192L172 192C170.762 190.35 169.334 190.667 172 190C169.387 188.902 166.835 189.007 164 189L166 188C163.948 187.126 162.253 187.047 160 187C163.96 185.829 167.887 186 172 186C169.387 184.902 166.835 185.007 164 185C166.729 184.19 169.15 184.021 172 184C170.762 182.35 169.334 182.667 172 182C169.387 180.902 166.835 181.007 164 181L166 180C163.948 179.126 162.253 179.047 160 179C163.96 177.829 167.887 178 172 178C169.387 176.902 166.835 177.007 164 177C166.729 176.19 169.15 176.021 172 176C170.762 174.35 169.334 174.667 172 174C169.387 172.902 166.835 173.007 164 173L166 172C163.948 171.126 162.253 171.047 160 171C163.96 169.829 167.887 170 172 170C169.387 168.902 166.835 169.007 164 169C166.729 168.19 169.15 168.021 172 168C167.517 164.938 161.246 166 156 166L120 166z"/>
<path style="fill:#3c1981; stroke:none;" d="M170 166C170.65 167.3 170.147 167 172 167C169.271 167.81 166.85 167.979 164 168C166.613 169.098 169.165 168.993 172 169C168.04 170.171 164.113 170 160 170C162.052 170.874 163.747 170.953 166 171L164 172C166.613 173.098 169.165 172.993 172 173C169.926 174.659 169.163 174.433 172 175C169.271 175.81 166.85 175.979 164 176C166.613 177.098 169.165 176.993 172 177C168.04 178.171 164.113 178 160 178C162.052 178.874 163.747 178.953 166 179L164 180C166.613 181.098 169.165 180.993 172 181C169.926 182.659 169.163 182.433 172 183C169.271 183.81 166.85 183.979 164 184C166.613 185.098 169.164 184.993 172 185C168.04 186.171 164.113 186 160 186C162.052 186.874 163.747 186.953 166 187L164 188C166.613 189.098 169.164 188.993 172 189C170.466 190.023 170.598 189.805 170 191C178.327 192.982 187.479 192 196 192C194.762 190.35 193.334 190.667 196 190C194.494 189.317 193.685 189.174 192 189L196 188C194.762 186.35 193.334 186.667 196 186C194.494 185.317 193.685 185.174 192 185L196 184C194.762 182.35 193.334 182.667 196 182C194.494 181.317 193.685 181.174 192 181L196 180C194.762 178.35 193.334 178.667 196 178C194.494 177.317 193.685 177.174 192 177L196 176C194.762 174.35 193.334 174.667 196 174C194.494 173.317 193.685 173.174 192 173L196 172C194.762 170.35 193.334 170.667 196 170C194.494 169.317 193.685 169.174 192 169L196 168C189.653 163.664 177.494 166 170 166z"/>
<path style="fill:#3f1b87; stroke:none;" d="M194 166C194.65 167.3 194.147 167 196 167L192 168C193.506 168.683 194.315 168.826 196 169C193.926 170.659 193.163 170.433 196 171L192 172C193.506 172.683 194.315 172.826 196 173C193.926 174.659 193.163 174.433 196 175L192 176C193.506 176.683 194.315 176.826 196 177C193.926 178.659 193.163 178.433 196 179L192 180C193.506 180.683 194.315 180.826 196 181C193.926 182.659 193.163 182.433 196 183L192 184C193.506 184.683 194.315 184.826 196 185C193.926 186.659 193.163 186.433 196 187L192 188C193.506 188.683 194.315 188.826 196 189C194.466 190.023 194.598 189.805 194 191C200.817 192.623 208.03 192 215 192L248 192L248 166L194 166z"/>
</svg>